<svg width="340" height="69" viewBox="0 0 340 69" fill="none" xmlns="http://www.w3.org/2000/svg">
<g clip-path="url(#clip0_496_889)">
<path d="M11.043 23.7329C11.5736 23.2023 12.4349 23.2048 12.963 23.7329L17.4962 28.2661C18.0268 28.7967 18.0243 29.658 17.4962 30.1861L12.963 34.7193C12.4324 35.2499 11.5711 35.2474 11.043 34.7193C8.01018 31.6864 8.01018 26.7608 11.043 23.728L11.043 23.7329Z" fill="black"/>
<path d="M31.136 52.8955L35.6693 48.3623C36.1999 47.8317 37.0611 47.8342 37.5892 48.3623L42.1225 52.8955C42.653 53.4261 42.6506 54.2873 42.1225 54.8154C39.0896 57.8483 34.164 57.8483 31.1311 54.8154C30.6005 54.2849 30.603 53.4236 31.1311 52.8955L31.136 52.8955Z" fill="black"/>
<path d="M45.2176 13.8364L40.6819 18.3721C40.1517 18.9022 40.1517 19.7618 40.6819 20.292L45.2176 24.8277C45.7478 25.3579 46.6073 25.3579 47.1375 24.8277L51.6732 20.292C52.2034 19.7618 52.2034 18.9022 51.6732 18.3721L47.1375 13.8364C46.6073 13.3062 45.7478 13.3062 45.2176 13.8364Z" fill="black"/>
<path d="M33.6275 14.0074C34.671 15.0509 34.671 16.74 33.6275 17.7835L24.7178 26.6933C23.6743 27.7368 21.9851 27.7368 20.9417 26.6933L12.0319 17.7835C10.9884 16.74 10.9884 15.0509 12.0319 14.0074C17.9962 8.04311 27.6633 8.04311 33.6275 14.0074Z" fill="black"/>
<path d="M22.0821 30.7431L13.171 39.6542C12.1284 40.6968 12.1284 42.3872 13.171 43.4298L22.0821 52.3409C23.1247 53.3835 24.8151 53.3835 25.8577 52.3409L34.7688 43.4298C35.8114 42.3872 35.8114 40.6968 34.7688 39.6542L25.8577 30.7431C24.8151 29.7005 23.1247 29.7005 22.0821 30.7431Z" fill="black"/>
<path d="M38.818 40.7933L47.7266 31.8847C48.768 30.8433 50.4609 30.8433 51.5023 31.8847C57.4619 37.8443 57.4619 47.5229 51.5023 53.4825C50.4609 54.5239 48.768 54.5239 47.7266 53.4825L38.818 44.5739C37.7766 43.5325 37.7766 41.8396 38.818 40.7982L38.818 40.7933Z" fill="black"/>
<path d="M81.625 42.325C85.7222 42.325 88.2315 40.1124 89.0272 35.8512H91.7039C90.8454 41.5328 87.4079 44.5725 81.6948 44.5725C75.0221 44.5725 71.4868 40.4753 71.4868 32.6788C71.4868 24.8823 74.9872 20.7852 81.6634 20.7852C87.345 20.7852 90.7826 23.8249 91.6725 29.4751H89.0621C88.2699 25.2802 85.7571 23.0327 81.6599 23.0327C76.7392 23.0327 74.0938 26.4039 74.0938 32.7451C74.0938 39.0863 76.7043 42.325 81.625 42.325Z" fill="black"/>
<path d="M94.6739 44.2404V19.4619H96.9877V30.6297C98.5407 28.8777 101.019 27.6214 103.528 27.6214C107.028 27.6214 108.846 29.6385 108.846 33.2366V44.2369H106.533V33.7985C106.533 30.9891 105.311 29.5373 102.767 29.5373C100.753 29.5373 98.4395 30.6925 96.9842 32.5771V44.2404H94.6704H94.6739Z" fill="black"/>
<path d="M119.12 27.6221C123.713 27.6221 126.456 30.3652 126.718 35.1533C126.718 35.6175 126.718 36.2771 126.651 36.5074H113.864C113.962 40.636 115.815 42.7509 119.316 42.7509C122.09 42.7509 123.908 41.3619 124.404 38.72H126.585C125.957 42.5206 123.448 44.5691 119.249 44.5691C114.227 44.5691 111.484 41.6306 111.484 36.1131C111.484 30.5955 114.227 27.6221 119.117 27.6221H119.12ZM124.376 35.1219C124.079 31.454 122.296 29.5066 119.19 29.5066C116.084 29.5066 114.136 31.454 113.938 35.1219H124.376Z" fill="black"/>
<path d="M138.845 29.7056C138.283 29.6392 137.624 29.5729 137.062 29.5729C133.726 29.5729 131.907 32.2148 131.907 35.1219V44.2411H129.594V27.8873H131.907V31.454C132.867 28.9099 134.783 27.6221 137.456 27.6221C137.886 27.6221 138.381 27.6535 138.845 27.7198V29.7021V29.7056Z" fill="black"/>
<path d="M150.904 29.7056C150.342 29.6392 149.682 29.5729 149.121 29.5729C145.784 29.5729 143.966 32.2148 143.966 35.1219V44.2411H141.652V27.8873H143.966V31.454C144.926 28.9099 146.842 27.6221 149.515 27.6221C149.944 27.6221 150.44 27.6535 150.904 27.7198V29.7021V29.7056Z" fill="black"/>
<path d="M156.488 51.0813L159.13 44.1119L152.126 27.957H154.538L160.121 41.4351L165.241 27.957H167.621L158.701 51.0848H156.488V51.0813Z" fill="black"/>
<path d="M194.782 44.241H192.14L190.291 38.9887H179.42L177.57 44.241H174.959L183.286 21.1133H186.459L194.786 44.241H194.782ZM189.659 36.9052L184.867 23.2282L180.009 36.9052H189.656H189.659Z" fill="black"/>
<path d="M197.358 21.1133H199.836V44.241H197.358V21.1133Z" fill="black"/>
<path d="M224.677 34.197L230.854 44.241H226.394L220.81 34.8252H216.252V44.241H212.221V21.1133H222.098C227.252 21.1133 230.226 23.5911 230.226 27.9186C230.226 31.3213 228.212 33.5025 224.677 34.197ZM221.274 31.5865C224.513 31.5865 226.066 30.4314 226.066 28.0513C226.066 25.6711 224.513 24.4182 221.274 24.4182H216.252V31.5865H221.274Z" fill="black"/>
<path d="M240.04 27.5547C245.457 27.5547 248.332 30.4932 248.332 36.0457C248.332 41.5981 245.457 44.5681 240.04 44.5681C234.624 44.5681 231.647 41.6296 231.647 36.0457C231.647 30.4618 234.523 27.5547 240.04 27.5547ZM239.974 41.5981C242.881 41.5981 244.465 39.6822 244.465 36.0492C244.465 32.4162 242.912 30.5316 240.005 30.5316C237.098 30.5316 235.514 32.4162 235.514 36.0806C235.514 39.745 237.067 41.5981 239.974 41.5981Z" fill="black"/>
<path d="M250.877 19.4619H254.678V29.7712C255.767 28.3159 257.452 27.5585 259.7 27.5585C264.258 27.5585 266.771 30.4971 266.771 36.0146C266.771 41.5322 264.226 44.5719 259.669 44.5719C257.288 44.5719 255.505 43.7134 254.381 42.0627L253.983 44.2753H250.877V19.4619ZM254.674 38.4576C254.674 40.7051 256.688 41.8603 258.803 41.8603C261.48 41.8603 262.9 39.8117 262.9 36.046C262.9 32.2804 261.48 30.2632 258.772 30.2632C256.625 30.2632 254.674 31.4184 254.674 33.7008V38.4576Z" fill="black"/>
<path d="M277.008 27.5547C282.424 27.5547 285.3 30.4932 285.3 36.0457C285.3 41.5981 282.424 44.5681 277.008 44.5681C271.592 44.5681 268.618 41.6296 268.618 36.0457C268.618 30.4618 271.494 27.5547 277.008 27.5547ZM276.942 41.5981C279.849 41.5981 281.433 39.6822 281.433 36.0492C281.433 32.4162 279.88 30.5316 276.973 30.5316C274.066 30.5316 272.482 32.4162 272.482 36.0806C272.482 39.745 274.035 41.5981 276.942 41.5981Z" fill="black"/>
<path d="M293.032 23.3281V27.886H296.996V30.6605H293.032V38.6559C293.032 40.4078 293.757 41.2663 295.112 41.2663C295.705 41.2663 296.302 41.2349 297.226 41.1686L297.293 44.0443C296.005 44.142 295.045 44.2432 293.956 44.2432C290.952 44.2432 289.231 42.1284 289.231 38.9246V30.6639H286.258V27.8895H289.231V23.3316H293.032V23.3281Z" fill="black"/>
<path d="M302.081 19.5283C303.302 19.5283 304.293 20.3868 304.293 21.5106C304.293 22.6344 303.302 23.5243 302.081 23.5243C300.859 23.5243 299.833 22.6309 299.833 21.5106C299.833 20.3903 300.824 19.5283 302.081 19.5283ZM300.165 44.2405V27.8867H303.965V44.2405H300.165Z" fill="black"/>
<path d="M314.637 41.5986C316.783 41.5986 318.172 40.4434 318.633 38.2273H322.266C321.672 42.3559 319.027 44.572 314.536 44.572C309.283 44.572 306.606 41.6335 306.606 36.0496C306.606 30.4657 309.283 27.5586 314.504 27.5586C318.964 27.5586 321.575 29.7398 322.168 33.8684H318.469C318.039 31.6872 316.717 30.532 314.57 30.532C311.894 30.532 310.473 32.4166 310.473 36.081C310.473 39.7454 311.929 41.5986 314.637 41.5986Z" fill="black"/>
<path d="M323.62 39.0195H327.186C327.452 40.9041 328.938 41.9266 331.482 41.9266C334.027 41.9266 335.381 41.0332 335.381 39.4174C335.381 35.2539 324.049 39.1521 324.049 32.2491C324.049 29.2093 326.691 27.5586 331.514 27.5586C336.005 27.5586 338.616 29.4432 339.014 32.9435H335.447C335.182 31.1602 333.863 30.2005 331.713 30.2005C329.27 30.2005 327.912 31.0276 327.912 32.5143C327.912 36.6778 339.244 32.5143 339.244 39.7838C339.244 42.8898 336.567 44.5755 331.514 44.5755C326.46 44.5755 323.916 42.6281 323.62 39.0265V39.0195Z" fill="black"/>
</g>
<defs>
<clipPath id="clip0_496_889">
<rect width="338.677" height="67.2374" fill="white" transform="translate(0.567627 0.817383)"/>
</clipPath>
</defs>
</svg>
